HIERARCHY
ROOT hip
{
  OFFSET 0 90.174 2.4664
  CHANNELS 6 Xposition Yposition Zposition Zrotation Xrotation Yrotation
  JOINT abdomen
  {
    OFFSET 0 -1.186 -1.5018
    CHANNELS 6 Xposition Yposition Zposition Zrotation Xrotation Yrotation
    JOINT abdomen2
    {
      OFFSET 0 9.964 0.2134
      CHANNELS 6 Xposition Yposition Zposition Zrotation Xrotation Yrotation
      JOINT chest
      {
        OFFSET 0 13.134 -3.2573
        CHANNELS 6 Xposition Yposition Zposition Zrotation Xrotation Yrotation
        JOINT neck
        {
          OFFSET 0 20.686 -1.6905
          CHANNELS 6 Xposition Yposition Zposition Zrotation Xrotation Yrotation
          JOINT head
          {
            OFFSET 0 7.238 -0.1237
            CHANNELS 6 Xposition Yposition Zposition Zrotation Xrotation Yrotation
            End Site
            {
              OFFSET 0 0 0
            }
          }
        }
        JOINT lCollar
        {
          OFFSET 1.7069 20.075 5.0056
          CHANNELS 6 Xposition Yposition Zposition Zrotation Xrotation Yrotation
          JOINT lShldr
          {
            OFFSET 13.6458 -0.047 -4.849
            CHANNELS 6 Xposition Yposition Zposition Zrotation Xrotation Yrotation
            JOINT lForeArm
            {
              OFFSET 28.3255 -0.9759 2.2888
              CHANNELS 6 Xposition Yposition Zposition Zrotation Xrotation Yrotation
              JOINT lHand
              {
                OFFSET 22.1583 -0.53 10.8316
                CHANNELS 6 Xposition Yposition Zposition Zrotation Xrotation Yrotation
                JOINT lThumb1
                {
                  OFFSET 0.786 0.112 2.5817
                  CHANNELS 6 Xposition Yposition Zposition Zrotation Xrotation Yrotation
                  JOINT lThumb2
                  {
                    OFFSET 0.3601 -0.878 4.2331
                    CHANNELS 6 Xposition Yposition Zposition Zrotation Xrotation Yrotation
                    JOINT lThumb2_End
                    {
                      OFFSET 1.8127 -1.216 2.2227
                      CHANNELS 6 Xposition Yposition Zposition Zrotation Xrotation Yrotation
                      End Site
                      {
                        OFFSET 0.0181 -0.0122 0.0222
                      }
                    }
                  }
                }
                JOINT lCarpal1
                {
                  OFFSET 0.9571 1.114 1.7695
                  CHANNELS 6 Xposition Yposition Zposition Zrotation Xrotation Yrotation
                  JOINT lIndex1
                  {
                    OFFSET 4.1246 0.487 4.1451
                    CHANNELS 6 Xposition Yposition Zposition Zrotation Xrotation Yrotation
                    JOINT lIndex2
                    {
                      OFFSET 3.4052 -1.454 2.7682
                      CHANNELS 6 Xposition Yposition Zposition Zrotation Xrotation Yrotation
                      JOINT lIndex2_End
                      {
                        OFFSET 1.4531 -1.795 1.2713
                        CHANNELS 6 Xposition Yposition Zposition Zrotation Xrotation Yrotation
                        End Site
                        {
                          OFFSET 0.0145 -0.0179 0.0127
                        }
                      }
                    }
                  }
                  JOINT lMid1
                  {
                    OFFSET 5.6954 0.21 2.1184
                    CHANNELS 6 Xposition Yposition Zposition Zrotation Xrotation Yrotation
                    JOINT lMid2
                    {
                      OFFSET 3.9766 -1.54 2.3863
                      CHANNELS 6 Xposition Yposition Zposition Zrotation Xrotation Yrotation
                      JOINT lMid2_End
                      {
                        OFFSET 1.4042 -1.926 1.125
                        CHANNELS 6 Xposition Yposition Zposition Zrotation Xrotation Yrotation
                        End Site
                        {
                          OFFSET 0.014 -0.0193 0.0113
                        }
                      }
                    }
                  }
                }
                JOINT lCarpal2
                {
                  OFFSET 2.0956 0.66 -0.3894
                  CHANNELS 6 Xposition Yposition Zposition Zrotation Xrotation Yrotation
                  JOINT lRing1
                  {
                    OFFSET 5.0395 -0.09 2.4971
                    CHANNELS 6 Xposition Yposition Zposition Zrotation Xrotation Yrotation
                    JOINT lRing2
                    {
                      OFFSET 3.7921 -1.552 1.4806
                      CHANNELS 6 Xposition Yposition Zposition Zrotation Xrotation Yrotation
                      JOINT lRing2_End
                      {
                        OFFSET 1.4655 -1.808 0.9609
                        CHANNELS 6 Xposition Yposition Zposition Zrotation Xrotation Yrotation
                        End Site
                        {
                          OFFSET 0.0147 -0.0181 0.0096
                        }
                      }
                    }
                  }
                  JOINT lPinky1
                  {
                    OFFSET 4.9141 -1.269 0.3591
                    CHANNELS 6 Xposition Yposition Zposition Zrotation Xrotation Yrotation
                    JOINT lPinky2
                    {
                      OFFSET 3.1477 -1.685 0.8462
                      CHANNELS 6 Xposition Yposition Zposition Zrotation Xrotation Yrotation
                      JOINT lPinky2_End
                      {
                        OFFSET 0.8055 -1.585 0.7955
                        CHANNELS 6 Xposition Yposition Zposition Zrotation Xrotation Yrotation
                        End Site
                        {
                          OFFSET 0.0081 -0.0158 0.008
                        }
                      }
                    }
                  }
                }
              }
            }
          }
        }
        JOINT rCollar
        {
          OFFSET -1.7069 20.075 5.0056
          CHANNELS 6 Xposition Yposition Zposition Zrotation Xrotation Yrotation
          JOINT rShldr
          {
            OFFSET -13.6458 -0.047 -4.849
            CHANNELS 6 Xposition Yposition Zposition Zrotation Xrotation Yrotation
            JOINT rForeArm
            {
              OFFSET -28.3255 -0.9759 2.2888
              CHANNELS 6 Xposition Yposition Zposition Zrotation Xrotation Yrotation
              JOINT rHand
              {
                OFFSET -22.1583 -0.53 10.8316
                CHANNELS 6 Xposition Yposition Zposition Zrotation Xrotation Yrotation
                JOINT rThumb1
                {
                  OFFSET -0.786 0.112 2.5817
                  CHANNELS 6 Xposition Yposition Zposition Zrotation Xrotation Yrotation
                  JOINT rThumb2
                  {
                    OFFSET -0.3601 -0.878 4.2331
                    CHANNELS 6 Xposition Yposition Zposition Zrotation Xrotation Yrotation
                    JOINT rThumb2_End
                    {
                      OFFSET -1.8127 -1.216 2.2227
                      CHANNELS 6 Xposition Yposition Zposition Zrotation Xrotation Yrotation
                      End Site
                      {
                        OFFSET -0.0181 -0.0122 0.0222
                      }
                    }
                  }
                }
                JOINT rCarpal1
                {
                  OFFSET -0.9571 1.114 1.7695
                  CHANNELS 6 Xposition Yposition Zposition Zrotation Xrotation Yrotation
                  JOINT rIndex1
                  {
                    OFFSET -4.1246 0.487 4.1451
                    CHANNELS 6 Xposition Yposition Zposition Zrotation Xrotation Yrotation
                    JOINT rIndex2
                    {
                      OFFSET -3.4052 -1.454 2.7682
                      CHANNELS 6 Xposition Yposition Zposition Zrotation Xrotation Yrotation
                      JOINT rIndex2_End
                      {
                        OFFSET -1.4531 -1.795 1.2713
                        CHANNELS 6 Xposition Yposition Zposition Zrotation Xrotation Yrotation
                        End Site
                        {
                          OFFSET -0.0145 -0.018 0.0127
                        }
                      }
                    }
                  }
                  JOINT rMid1
                  {
                    OFFSET -5.6954 0.21 2.1184
                    CHANNELS 6 Xposition Yposition Zposition Zrotation Xrotation Yrotation
                    JOINT rMid2
                    {
                      OFFSET -3.9766 -1.54 2.3863
                      CHANNELS 6 Xposition Yposition Zposition Zrotation Xrotation Yrotation
                      JOINT rMid2_End
                      {
                        OFFSET -1.4042 -1.926 1.125
                        CHANNELS 6 Xposition Yposition Zposition Zrotation Xrotation Yrotation
                        End Site
                        {
                          OFFSET -0.014 -0.0193 0.0113
                        }
                      }
                    }
                  }
                }
                JOINT rCarpal2
                {
                  OFFSET -2.0956 0.66 -0.3894
                  CHANNELS 6 Xposition Yposition Zposition Zrotation Xrotation Yrotation
                  JOINT rRing1
                  {
                    OFFSET -5.0395 -0.09 2.4971
                    CHANNELS 6 Xposition Yposition Zposition Zrotation Xrotation Yrotation
                    JOINT rRing2
                    {
                      OFFSET -3.7921 -1.552 1.4806
                      CHANNELS 6 Xposition Yposition Zposition Zrotation Xrotation Yrotation
                      JOINT rRing2_End
                      {
                        OFFSET -1.4655 -1.808 0.9609
                        CHANNELS 6 Xposition Yposition Zposition Zrotation Xrotation Yrotation
                        End Site
                        {
                          OFFSET -0.0147 -0.0181 0.0096
                        }
                      }
                    }
                  }
                  JOINT rPinky1
                  {
                    OFFSET -4.9141 -1.269 0.3592
                    CHANNELS 6 Xposition Yposition Zposition Zrotation Xrotation Yrotation
                    JOINT rPinky2
                    {
                      OFFSET -3.1477 -1.685 0.8462
                      CHANNELS 6 Xposition Yposition Zposition Zrotation Xrotation Yrotation
                      JOINT rPinky2_End
                      {
                        OFFSET -0.8055 -1.585 0.7955
                        CHANNELS 6 Xposition Yposition Zposition Zrotation Xrotation Yrotation
                        End Site
                        {
                          OFFSET -0.0081 -0.0158 0.008
                        }
                      }
                    }
                  }
                }
              }
            }
          }
        }
      }
    }
  }
  JOINT lThigh
  {
    OFFSET 8.367 -8.2066 0.5982
    CHANNELS 6 Xposition Yposition Zposition Zrotation Xrotation Yrotation
    JOINT lShin
    {
      OFFSET 2.1923 -43.463 -0.4932
      CHANNELS 6 Xposition Yposition Zposition Zrotation Xrotation Yrotation
      JOINT lFoot
      {
        OFFSET 0.7333 -45.8593 -2.6451
        CHANNELS 6 Xposition Yposition Zposition Zrotation Xrotation Yrotation
        End Site
        {
          OFFSET 2.6618 -4.2699 12.3931
        }
      }
    }
  }
  JOINT rThigh
  {
    OFFSET -8.367 -8.2066 0.5982
    CHANNELS 6 Xposition Yposition Zposition Zrotation Xrotation Yrotation
    JOINT rShin
    {
      OFFSET -2.1923 -43.463 -0.4931
      CHANNELS 6 Xposition Yposition Zposition Zrotation Xrotation Yrotation
      JOINT rFoot
      {
        OFFSET -0.7333 -45.8593 -2.6451
        CHANNELS 6 Xposition Yposition Zposition Zrotation Xrotation Yrotation
        End Site
        {
          OFFSET -2.6618 -4.2699 12.3931
        }
      }
    }
  }
}
MOTION
Frames:	4
Frame Time:	0.0333333
0 90.174 2.4664 0 0 -0 0 -1.186 -1.5018 0 0 -0 0 9.964 0.2134 0 0 -0 0 13.134 -3.2573 0 0 -0 0 20.686 -1.6905 0 0 -0 0 7.238 -0.1237 0 0 -0 1.7069 20.075 5.0056 0 0 -0 13.6458 -0.047 -4.849 1.66051 0.0835086 5.75766 28.3255 -0.9759 2.2888 -0.0175111 0.895433 15.7816 22.1583 -0.53 10.8316 7.95139e-016 -1.98785e-016 -0 0.786 0.112 2.5817 5.46658e-016 -3.97569e-016 -0 0.3601 -0.878 4.2331 5.96354e-016 0 -0 1.8127 -1.216 2.2227 3.97569e-016 1.98785e-016 9.54166e-015 0.9571 1.114 1.7695 1.49089e-016 -3.97569e-016 -0 4.1246 0.487 4.1451 6.4605e-016 0 3.18055e-015 3.4052 -1.454 2.7682 5.96354e-016 0 3.18055e-015 1.4531 -1.795 1.2713 8.94531e-016 -1.98785e-016 6.36111e-015 5.6954 0.21 2.1184 6.4605e-016 0 3.18055e-015 3.9766 -1.54 2.3863 5.96354e-016 0 3.18055e-015 1.4042 -1.926 1.125 8.94531e-016 -1.98785e-016 6.36111e-015 2.0956 0.66 -0.3894 1.49089e-016 -3.97569e-016 -0 5.0395 -0.09 2.4971 6.4605e-016 0 3.18055e-015 3.7921 -1.552 1.4806 5.96354e-016 0 3.18055e-015 1.4655 -1.808 0.9609 8.94531e-016 -1.98785e-016 6.36111e-015 4.9141 -1.269 0.3591 6.4605e-016 0 3.18055e-015 3.1477 -1.685 0.8462 5.96354e-016 0 3.18055e-015 0.8055 -1.585 0.7955 8.94531e-016 -1.98785e-016 6.36111e-015 -1.7069 20.075 5.0056 0 0 -0 -13.6458 -0.047 -4.849 -1.4496 0.0636048 -5.0245 -28.3255 -0.9759 2.2888 -1.74811 1.20616 -16.8394 -22.1583 -0.53 10.8316 -1.19271e-015 1.98785e-016 -3.18055e-015 -0.786 0.112 2.5817 -3.97569e-016 1.98785e-016 -3.18055e-015 -0.3601 -0.878 4.2331 -2.98177e-016 1.98785e-016 -3.18055e-015 -1.8127 -1.216 2.2227 -2.98177e-016 3.97569e-016 -0 -0.9571 1.114 1.7695 4.96962e-016 0 -6.36111e-015 -4.1246 0.487 4.1451 -9.93923e-017 3.97569e-016 -0 -3.4052 -1.454 2.7682 -8.94531e-016 5.96354e-016 -0 -1.4531 -1.795 1.2713 -3.97569e-016 3.97569e-016 -0 -5.6954 0.21 2.1184 -9.93923e-017 3.97569e-016 -0 -3.9766 -1.54 2.3863 -8.94531e-016 5.96354e-016 -0 -1.4042 -1.926 1.125 -3.97569e-016 3.97569e-016 -0 -2.0956 0.66 -0.3894 4.96962e-016 0 -6.36111e-015 -5.0395 -0.09 2.4971 -9.93923e-017 3.97569e-016 -0 -3.7921 -1.552 1.4806 -8.94531e-016 5.96354e-016 -0 -1.4655 -1.808 0.9609 -3.97569e-016 3.97569e-016 -0 -4.9141 -1.269 0.3592 -9.93923e-017 3.97569e-016 -0 -3.1477 -1.685 0.8462 -8.94531e-016 5.96354e-016 -0 -0.8055 -1.585 0.7955 -3.97569e-016 3.97569e-016 -0 8.367 -8.2066 0.5982 -4.66115 -1.03232 0.120763 2.1923 -43.463 -0.4932 0.00990601 1.55097 0.177175 0.7333 -45.8593 -2.6451 4.65196 -0.54114 -0.255042 -8.367 -8.2066 0.5982 4.66115 -1.03222 -0.120763 -2.1923 -43.463 -0.4931 -0.00990459 1.5509 -0.177176 -0.7333 -45.8593 -2.6451 -4.65196 -0.541171 0.255041 
-48.9893 2.64576 -14.5763 -96.6667 1.47649e-007 3.75951 0 -1.186 -1.5018 0.0463085 1.03972 -0.275605 0 9.964 0.2134 0.0974989 2.07922 -0.552179 -8.88178e-016 13.134 -3.2573 0.0975578 2.07922 -0.552175 0 20.686 -1.6905 0.000189639 56.217 -0.000167671 -4.44089e-016 7.238 -0.1237 2.00627e-005 -87.1038 2.06537e-005 1.7069 20.075 5.0056 -17.7997 -3.06815 8.33486 13.6458 -0.047 -4.849 0.73772 -1.01539 -73.3198 28.3255 -0.9759 2.2888 -16.326 -10.3217 -23.5492 22.1583 -0.53 10.8316 -49.994 -21.9093 -36.1663 0.786 0.112 2.5817 5.42304e-007 2.89558e-007 8.96577e-007 0.3601 -0.878 4.2331 -3.18055e-015 7.95139e-016 1.59028e-015 1.8127 -1.216 2.2227 -5.42304e-007 -2.89558e-007 -8.96577e-007 0.9571 1.114 1.7695 -3.18055e-015 -7.95139e-016 -1.19271e-015 4.1246 0.487 4.1451 5.42304e-007 2.89558e-007 8.96577e-007 3.4052 -1.454 2.7682 -3.18055e-015 1.19271e-015 1.19271e-015 1.4531 -1.795 1.2713 -5.42304e-007 -2.89558e-007 -8.96577e-007 5.6954 0.21 2.1184 5.42304e-007 2.89558e-007 8.96577e-007 3.9766 -1.54 2.3863 -3.18055e-015 1.19271e-015 1.19271e-015 1.4042 -1.926 1.125 -5.42304e-007 -2.89558e-007 -8.96577e-007 2.0956 0.66 -0.3894 -3.18055e-015 -7.95139e-016 -1.19271e-015 5.0395 -0.09 2.4971 5.42304e-007 2.89558e-007 8.96577e-007 3.7921 -1.552 1.4806 -3.18055e-015 1.19271e-015 1.19271e-015 1.4655 -1.808 0.9609 -5.42304e-007 -2.89558e-007 -8.96577e-007 4.9141 -1.269 0.3591 5.42304e-007 2.89558e-007 8.96577e-007 3.1477 -1.685 0.8462 -3.18055e-015 1.19271e-015 1.19271e-015 0.8055 -1.585 0.7955 -5.42304e-007 -2.89558e-007 -8.96577e-007 -1.7069 20.075 5.0056 17.7835 -3.13491 -8.42715 -13.6458 -0.047 -4.849 -0.685432 -0.814123 74.008 -28.3255 -0.9759 2.2888 14.4957 -11.3119 22.0412 -22.1583 -0.53 10.8316 50.5314 -22.3652 35.5816 -0.786 0.112 2.5817 -3.18055e-015 -4.37326e-015 -1.59028e-015 -0.3601 -0.878 4.2331 3.18055e-015 2.38542e-015 -3.37934e-015 -1.8127 -1.216 2.2227 3.18055e-015 3.97569e-016 7.95139e-016 -0.9571 1.114 1.7695 -3.18055e-015 -4.37326e-015 -1.59028e-015 -4.1246 0.487 4.1451 3.18055e-015 -2.38542e-015 -1.98785e-016 -3.4052 -1.454 2.7682 3.86217e-032 -1.59028e-015 1.39149e-015 -1.4531 -1.795 1.2713 3.18055e-015 3.18055e-015 -1.98785e-016 -5.6954 0.21 2.1184 3.18055e-015 -2.38542e-015 -1.98785e-016 -3.9766 -1.54 2.3863 3.86217e-032 -1.59028e-015 1.39149e-015 -1.4042 -1.926 1.125 3.18055e-015 3.18055e-015 -1.98785e-016 -2.0956 0.66 -0.3894 -3.18055e-015 -4.37326e-015 -1.59028e-015 -5.0395 -0.09 2.4971 3.18055e-015 -2.38542e-015 -1.98785e-016 -3.7921 -1.552 1.4806 3.86217e-032 -1.59028e-015 1.39149e-015 -1.4655 -1.808 0.9609 3.18055e-015 3.18055e-015 -1.98785e-016 -4.9141 -1.269 0.3592 3.18055e-015 -2.38542e-015 -1.98785e-016 -3.1477 -1.685 0.8462 3.86217e-032 -1.59028e-015 1.39149e-015 -0.8055 -1.585 0.7955 3.18055e-015 3.18055e-015 -1.98785e-016 8.367 -8.2066 0.5982 -15.5085 -87.4021 -28.9098 2.1923 -43.463 -0.4932 -27.6805 54.8894 45.1271 0.7333 -45.8593 -2.6451 33.7902 38.6986 -42.043 -8.367 -8.2066 0.5982 -103.864 -28.7934 -75.0236 -2.1923 -43.463 -0.4931 88.7351 4.38876 -69.3381 -0.7333 -45.8593 -2.6451 -1.72994 53.0208 19.9754 
-45.514 8.1501 -12.5227 -90 1.98785e-016 3.50023 0 -1.186 -1.5018 0.0423394 0.639764 -0.256303 0 9.964 0.2134 0.0875422 1.27933 -0.513125 -8.88178e-016 13.134 -3.2573 0.0875467 1.27933 -0.513127 8.88178e-016 20.686 -1.6905 3.57955e-006 48.4324 1.41932e-005 8.88178e-016 7.238 -0.1237 -2.40566e-005 -75.7225 -2.0578e-005 1.7069 20.075 5.0056 -16.5774 -2.36313 10.0778 13.6458 -0.047 -4.849 0.760238 -0.844303 -68.6261 28.3255 -0.9759 2.2888 -15.7619 -9.11878 -24.6149 22.1583 -0.53 10.8316 -44.8213 -23.9038 -31.4384 0.786 0.112 2.5817 6.36111e-015 -4.77083e-015 3.18055e-015 0.3601 -0.878 4.2331 4.41391e-032 -3.18055e-015 7.95139e-016 1.8127 -1.216 2.2227 5.51738e-032 -7.95139e-016 3.97569e-015 0.9571 1.114 1.7695 6.36111e-015 -3.18055e-015 3.18055e-015 4.1246 0.487 4.1451 1.32417e-031 -2.38542e-015 3.18055e-015 3.4052 -1.454 2.7682 1.54487e-031 -5.56597e-015 1.59028e-015 1.4531 -1.795 1.2713 6.36111e-015 -1.59028e-015 8.74653e-015 5.6954 0.21 2.1184 1.32417e-031 -2.38542e-015 3.18055e-015 3.9766 -1.54 2.3863 1.54487e-031 -5.56597e-015 1.59028e-015 1.4042 -1.926 1.125 6.36111e-015 -1.59028e-015 8.74653e-015 2.0956 0.66 -0.3894 6.36111e-015 -3.18055e-015 3.18055e-015 5.0395 -0.09 2.4971 1.32417e-031 -2.38542e-015 3.18055e-015 3.7921 -1.552 1.4806 1.54487e-031 -5.56597e-015 1.59028e-015 1.4655 -1.808 0.9609 6.36111e-015 -1.59028e-015 8.74653e-015 4.9141 -1.269 0.3591 1.32417e-031 -2.38542e-015 3.18055e-015 3.1477 -1.685 0.8462 1.54487e-031 -5.56597e-015 1.59028e-015 0.8055 -1.585 0.7955 6.36111e-015 -1.59028e-015 8.74653e-015 -1.7069 20.075 5.0056 16.4902 -2.78966 -10.6521 -13.6458 -0.047 -4.849 -0.716237 -0.663573 69.0885 -28.3255 -0.9759 2.2888 13.708 -10.3161 22.2484 -22.1583 -0.53 10.8316 46.4527 -23.055 31.7152 -0.786 0.112 2.5817 -9.54166e-015 -7.95139e-016 -1.59028e-015 -0.3601 -0.878 4.2331 -6.36111e-015 -5.96354e-015 -1.59028e-015 -1.8127 -1.216 2.2227 -3.18055e-015 7.95139e-016 -1.59028e-015 -0.9571 1.114 1.7695 4.41391e-032 3.18055e-015 -7.95139e-016 -4.1246 0.487 4.1451 -3.18055e-015 -1.23246e-014 1.43125e-014 -3.4052 -1.454 2.7682 -1.27222e-014 -3.57812e-015 7.95139e-016 -1.4531 -1.795 1.2713 -9.54166e-015 -5.96354e-015 -2.38542e-015 -5.6954 0.21 2.1184 -3.18055e-015 -1.23246e-014 1.43125e-014 -3.9766 -1.54 2.3863 -1.27222e-014 -3.57812e-015 7.95139e-016 -1.4042 -1.926 1.125 -9.54166e-015 -5.96354e-015 -2.38542e-015 -2.0956 0.66 -0.3894 4.41391e-032 3.18055e-015 -7.95139e-016 -5.0395 -0.09 2.4971 -3.18055e-015 -1.23246e-014 1.43125e-014 -3.7921 -1.552 1.4806 -1.27222e-014 -3.57812e-015 7.95139e-016 -1.4655 -1.808 0.9609 -9.54166e-015 -5.96354e-015 -2.38542e-015 -4.9141 -1.269 0.3592 -3.18055e-015 -1.23246e-014 1.43125e-014 -3.1477 -1.685 0.8462 -1.27222e-014 -3.57812e-015 7.95139e-016 -0.8055 -1.585 0.7955 -9.54166e-015 -5.96354e-015 -2.38542e-015 8.367 -8.2066 0.5982 0.843172 -82.6178 -11.0209 2.1923 -43.463 -0.4932 -23.3037 54.6934 40.1704 0.7333 -45.8593 -2.6451 28.7776 36.0861 -36.8783 -8.367 -8.2066 0.5982 -95.8775 -29.9426 -71.0183 -2.1923 -43.463 -0.4931 81.6803 4.20597 -62.1968 -0.7333 -45.8593 -2.6451 4.33262 49.4652 10.8942 
-46.1375 7.70611 -11.4617 -90 1.98785e-016 3.50023 8.88178e-016 -1.186 -1.5018 0.043937 0.332244 -0.255716 0 9.964 0.2134 0.089375 0.664287 -0.511701 -8.88178e-016 13.134 -3.2573 0.0893901 0.664289 -0.5117 -8.88178e-016 20.686 -1.6905 -0.000252602 44.7477 0.000232747 -8.88178e-016 7.238 -0.1237 2.08856e-005 -70.6156 1.03357e-005 1.7069 20.075 5.0056 -16.5732 -1.89586 12.253 13.6458 -0.047 -4.849 0.722124 -0.941674 -69.3308 28.3255 -0.9759 2.2888 -16.7124 -8.22547 -28.2203 22.1583 -0.53 10.8316 -44.0645 -25.9802 -29.4071 0.786 0.112 2.5817 1.25874e-006 9.88231e-007 5.60594e-007 0.3601 -0.878 4.2331 2.51747e-006 1.97646e-006 1.12119e-006 1.8127 -1.216 2.2227 1.25874e-006 9.88231e-007 5.60594e-007 0.9571 1.114 1.7695 -3.18055e-015 -1.59028e-015 -1.59028e-015 4.1246 0.487 4.1451 1.25874e-006 9.88231e-007 5.60594e-007 3.4052 -1.454 2.7682 2.51747e-006 1.97646e-006 1.12119e-006 1.4531 -1.795 1.2713 1.25874e-006 9.88231e-007 5.60594e-007 5.6954 0.21 2.1184 1.25874e-006 9.88231e-007 5.60594e-007 3.9766 -1.54 2.3863 2.51747e-006 1.97646e-006 1.12119e-006 1.4042 -1.926 1.125 1.25874e-006 9.88231e-007 5.60594e-007 2.0956 0.66 -0.3894 -3.18055e-015 -1.59028e-015 -1.59028e-015 5.0395 -0.09 2.4971 1.25874e-006 9.88231e-007 5.60594e-007 3.7921 -1.552 1.4806 2.51747e-006 1.97646e-006 1.12119e-006 1.4655 -1.808 0.9609 1.25874e-006 9.88231e-007 5.60594e-007 4.9141 -1.269 0.3591 1.25874e-006 9.88231e-007 5.60594e-007 3.1477 -1.685 0.8462 2.51747e-006 1.97646e-006 1.12119e-006 0.8055 -1.585 0.7955 1.25874e-006 9.88231e-007 5.60594e-007 -1.7069 20.075 5.0056 16.4053 -2.66034 -13.289 -13.6458 -0.047 -4.849 -0.704136 -0.772391 69.5789 -28.3255 -0.9759 2.2888 14.4981 -9.73331 25.0369 -22.1583 -0.53 10.8316 46.843 -23.9583 30.5394 -0.786 0.112 2.5817 3.18055e-015 7.95139e-016 1.59028e-015 -0.3601 -0.878 4.2331 6.36111e-015 1.59028e-015 5.56597e-015 -1.8127 -1.216 2.2227 -4.96564e-032 1.19271e-015 2.38542e-015 -0.9571 1.114 1.7695 3.18055e-015 -7.95139e-016 1.59028e-015 -4.1246 0.487 4.1451 3.18055e-015 -1.15295e-014 6.36111e-015 -3.4052 -1.454 2.7682 3.18055e-015 1.19271e-015 3.97569e-015 -1.4531 -1.795 1.2713 -2.20695e-032 7.95139e-016 1.59028e-015 -5.6954 0.21 2.1184 3.18055e-015 -1.15295e-014 6.36111e-015 -3.9766 -1.54 2.3863 3.18055e-015 1.19271e-015 3.97569e-015 -1.4042 -1.926 1.125 -2.20695e-032 7.95139e-016 1.59028e-015 -2.0956 0.66 -0.3894 3.18055e-015 -7.95139e-016 1.59028e-015 -5.0395 -0.09 2.4971 3.18055e-015 -1.15295e-014 6.36111e-015 -3.7921 -1.552 1.4806 3.18055e-015 1.19271e-015 3.97569e-015 -1.4655 -1.808 0.9609 -2.20695e-032 7.95139e-016 1.59028e-015 -4.9141 -1.269 0.3592 3.18055e-015 -1.15295e-014 6.36111e-015 -3.1477 -1.685 0.8462 3.18055e-015 1.19271e-015 3.97569e-015 -0.8055 -1.585 0.7955 -2.20695e-032 7.95139e-016 1.59028e-015 8.367 -8.2066 0.5982 -1.50136 -83.8534 -13.0093 2.1923 -43.463 -0.4932 -25.1304 57.2197 41.6579 0.7333 -45.8593 -2.6451 27.9915 34.8999 -35.8117 -8.367 -8.2066 0.5982 -96.765 -28.3823 -71.1634 -2.1923 -43.463 -0.4931 83.1626 1.08072 -51.8995 -0.7333 -45.8593 -2.6451 15.7457 47.3399 -4.86786 
